<svg width="50" height="50" viewBox="0 0 50 50" fill="none" xmlns="http://www.w3.org/2000/svg">
<path d="M24.6226 0C18.0923 0 11.8294 2.59416 7.2118 7.2118C2.59416 11.8294 0 18.0923 0 24.6226C0 31.153 2.59416 37.4158 7.2118 42.0335C11.8294 46.6511 18.0923 49.2453 24.6226 49.2453C31.153 49.2453 37.4158 46.6511 42.0335 42.0335C46.6511 37.4158 49.2453 31.153 49.2453 24.6226C49.2453 18.0923 46.6511 11.8294 42.0335 7.2118C37.4158 2.59416 31.153 0 24.6226 0V0ZM12.3113 12.3113H36.934C37.3741 12.3113 37.7988 12.4067 38.1928 12.5822L24.6226 28.4114L11.0525 12.5822C11.4478 12.4025 11.8771 12.3101 12.3113 12.3113ZM9.23349 33.8561V15.3892L9.23965 15.1952L18.2638 25.7245L9.33814 34.6502C9.26763 34.3914 9.23243 34.1243 9.23349 33.8561ZM36.934 36.934H12.3113C12.0405 36.934 11.7727 36.897 11.5172 36.8293L20.2767 28.0698L24.6257 33.1421L28.9747 28.0698L37.7342 36.8293C37.4754 36.8998 37.2083 36.935 36.9401 36.934H36.934ZM40.0118 33.8561C40.0118 34.127 39.9749 34.3948 39.9071 34.6502L30.9814 25.7245L40.0056 15.1952L40.0118 15.3892V33.8561Z" fill="white"/>
</svg>
