<svg width="50" height="50" viewBox="0 0 50 50" fill="none" xmlns="http://www.w3.org/2000/svg">
<path d="M24.6254 2.11619e-06C11.0198 -0.00564917 0 11.3082 0 25.2725C0 36.3151 6.89357 45.7019 16.4939 49.1492C17.7868 49.4826 17.5888 48.5389 17.5888 47.8946V43.5149C10.123 44.4134 9.82045 39.3386 9.3198 38.4909C8.30749 36.7164 5.91428 36.2643 6.62949 35.4166C8.3295 34.518 10.0625 35.6426 12.0706 38.6887C13.5231 40.8983 16.3564 40.5254 17.7923 40.158C18.1059 38.83 18.7771 37.6432 19.7014 36.722C11.9661 35.2979 8.74212 30.4491 8.74212 24.6848C8.74212 21.8874 9.63889 19.3161 11.3994 17.2421C10.2771 13.823 11.504 10.8957 11.669 10.4605C14.8655 10.1667 18.1885 12.8115 18.447 13.0206C20.2626 12.5176 22.3367 12.252 24.6584 12.252C26.9911 12.252 29.0707 12.5289 30.9028 13.0375C31.5245 12.5515 34.6054 10.2797 37.5763 10.5566C37.7358 10.9917 38.9352 13.8513 37.8789 17.2251C39.6614 19.3048 40.5692 21.8987 40.5692 24.7018C40.5692 30.4774 37.3232 35.3318 29.5659 36.7333C30.2303 37.4045 30.7579 38.205 31.1178 39.088C31.4777 39.971 31.6627 40.9188 31.662 41.876V48.2337C31.706 48.7423 31.662 49.2453 32.4873 49.2453C42.2307 45.8715 49.2453 36.4169 49.2453 25.2782C49.2453 11.3082 38.22 2.11619e-06 24.6254 2.11619e-06Z" fill="white"/>
</svg>
