<svg width="50" height="50" viewBox="0 0 50 50" fill="none" xmlns="http://www.w3.org/2000/svg">
<path d="M24.616 16.4116C20.0948 16.4116 16.4051 20.1013 16.4051 24.6226C16.4051 29.144 20.0948 32.8337 24.616 32.8337C29.1372 32.8337 32.8269 29.144 32.8269 24.6226C32.8269 20.1013 29.1372 16.4116 24.616 16.4116ZM49.2425 24.6226C49.2425 21.2224 49.2733 17.853 49.0824 14.4589C48.8914 10.5166 47.9921 7.01787 45.1094 4.13507C42.2205 1.24612 38.7279 0.352942 34.7857 0.161987C31.3855 -0.028967 28.0162 0.0018322 24.6222 0.0018322C21.222 0.0018322 17.8527 -0.028967 14.4587 0.161987C10.5165 0.352942 7.01774 1.25228 4.135 4.13507C1.24609 7.02403 0.352935 10.5166 0.161984 14.4589C-0.0289665 17.8592 0.00183217 21.2286 0.00183217 24.6226C0.00183217 28.0167 -0.0289665 31.3923 0.161984 34.7863C0.352935 38.7286 1.25225 42.2274 4.135 45.1102C7.0239 47.9992 10.5165 48.8923 14.4587 49.0833C17.8588 49.2743 21.2282 49.2435 24.6222 49.2435C28.0223 49.2435 31.3917 49.2743 34.7857 49.0833C38.7279 48.8923 42.2266 47.993 45.1094 45.1102C47.9983 42.2213 48.8914 38.7286 49.0824 34.7863C49.2795 31.3923 49.2425 28.0229 49.2425 24.6226ZM24.616 37.2564C17.6248 37.2564 11.9825 31.614 11.9825 24.6226C11.9825 17.6312 17.6248 11.9888 24.616 11.9888C31.6073 11.9888 37.2496 17.6312 37.2496 24.6226C37.2496 31.614 31.6073 37.2564 24.616 37.2564ZM37.767 14.422C36.1347 14.422 34.8165 13.1038 34.8165 11.4714C34.8165 9.83907 36.1347 8.52087 37.767 8.52087C39.3993 8.52087 40.7175 9.83907 40.7175 11.4714C40.718 11.859 40.642 12.2429 40.4939 12.6011C40.3458 12.9593 40.1285 13.2848 39.8544 13.5589C39.5803 13.8329 39.2549 14.0503 38.8967 14.1984C38.5385 14.3465 38.1546 14.4225 37.767 14.422Z" fill="white"/>
</svg>
