<svg width="50" height="50" viewBox="0 0 50 50" fill="none" xmlns="http://www.w3.org/2000/svg">
<path d="M24.6226 0C11.0252 0 0 11.0252 0 24.6226C0 38.2201 11.0252 49.2453 24.6226 49.2453C38.2201 49.2453 49.2453 38.2201 49.2453 24.6226C49.2453 11.0252 38.2201 0 24.6226 0ZM16.351 28.371C16.351 29.8989 15.1143 31.141 13.5864 31.141C12.8554 31.141 12.1519 30.8498 11.6298 30.3276C11.1132 29.8055 10.8219 29.102 10.8219 28.371C10.8219 26.8431 12.0585 25.601 13.5864 25.601H16.351V28.371ZM23.7158 35.7578C23.7158 37.2857 22.4792 38.5278 20.9512 38.5278C19.4233 38.5278 18.1867 37.2857 18.1867 35.7578V28.371C18.1867 26.8431 19.4233 25.601 20.9512 25.601C21.6822 25.601 22.3857 25.8922 22.9079 26.4144C23.43 26.9365 23.7158 27.64 23.7158 28.371V35.7578ZM20.9567 23.7543H13.5919C12.064 23.7543 10.8274 22.5121 10.8274 20.9842C10.8274 19.4563 12.064 18.2142 13.5919 18.2142H20.9567C22.4846 18.2142 23.7213 19.4563 23.7213 20.9842C23.7158 22.5176 22.4792 23.7543 20.9567 23.7543ZM20.9567 16.3675C20.2257 16.3675 19.5222 16.0762 19.0001 15.554C18.478 15.0319 18.1922 14.3339 18.1922 13.5974C18.1922 12.0695 19.4288 10.8274 20.9567 10.8274C22.4846 10.8274 23.7213 12.0695 23.7213 13.5974V16.3675H20.9567ZM25.557 13.5974C25.557 12.0695 26.7936 10.8274 28.3215 10.8274C29.8495 10.8274 31.0861 12.0695 31.0861 13.5974V20.9842C31.0861 22.5121 29.8495 23.7543 28.3215 23.7543C26.7936 23.7543 25.557 22.5121 25.557 20.9842V13.5974ZM28.3215 38.5278C26.7936 38.5278 25.557 37.2857 25.557 35.7578V32.9877H28.3215C29.8495 32.9877 31.0861 34.2299 31.0861 35.7578C31.0861 37.2857 29.8495 38.5278 28.3215 38.5278ZM35.6863 31.141H28.3215C27.5905 31.141 26.887 30.8498 26.3649 30.3276C25.8428 29.8055 25.557 29.1075 25.557 28.371C25.557 26.8431 26.7936 25.601 28.3215 25.601H35.6863C37.2143 25.601 38.4509 26.8431 38.4509 28.371C38.4509 29.8989 37.2143 31.141 35.6863 31.141ZM35.6863 23.7543H32.9218V20.9842C32.9218 19.4563 34.1584 18.2142 35.6863 18.2142C37.2143 18.2142 38.4509 19.4563 38.4509 20.9842C38.4509 22.5121 37.2143 23.7543 35.6863 23.7543Z" fill="white"/>
</svg>
